<mxfile host="app.diagrams.net" modified="2023-09-26T13:59:53.833Z" agent="Mozilla/5.0 (Windows NT 10.0; Win64; x64) AppleWebKit/537.36 (KHTML, like Gecko) Chrome/117.0.0.0 Safari/537.36" etag="9penKr9zC9LCKO4bi7q6" version="21.7.5" type="device">
  <diagram name="Page-1" id="r4A-RRAnyN2bA_-Gl4pG">
    <mxGraphModel dx="1500" dy="844" grid="1" gridSize="10" guides="1" tooltips="1" connect="1" arrows="1" fold="1" page="1" pageScale="1" pageWidth="850" pageHeight="1100" math="0" shadow="0">
      <root>
        <mxCell id="0" />
        <mxCell id="1" parent="0" />
        <mxCell id="AW0lx6tvLDKkkBaJoxgc-1" value="Student" style="shape=umlActor;verticalLabelPosition=bottom;verticalAlign=top;html=1;" vertex="1" parent="1">
          <mxGeometry x="170" y="340" width="30" height="60" as="geometry" />
        </mxCell>
        <mxCell id="AW0lx6tvLDKkkBaJoxgc-3" value="Librarian" style="shape=umlActor;verticalLabelPosition=bottom;verticalAlign=top;html=1;" vertex="1" parent="1">
          <mxGeometry x="610" y="350" width="30" height="60" as="geometry" />
        </mxCell>
        <mxCell id="AW0lx6tvLDKkkBaJoxgc-20" style="edgeStyle=orthogonalEdgeStyle;rounded=0;orthogonalLoop=1;jettySize=auto;html=1;entryX=0.33;entryY=1.052;entryDx=0;entryDy=0;entryPerimeter=0;" edge="1" parent="1" source="AW0lx6tvLDKkkBaJoxgc-5" target="AW0lx6tvLDKkkBaJoxgc-8">
          <mxGeometry relative="1" as="geometry" />
        </mxCell>
        <mxCell id="AW0lx6tvLDKkkBaJoxgc-5" value="Book Issue" style="ellipse;whiteSpace=wrap;html=1;" vertex="1" parent="1">
          <mxGeometry x="320" y="330" width="120" height="80" as="geometry" />
        </mxCell>
        <mxCell id="AW0lx6tvLDKkkBaJoxgc-19" style="edgeStyle=orthogonalEdgeStyle;rounded=0;orthogonalLoop=1;jettySize=auto;html=1;exitX=0.5;exitY=1;exitDx=0;exitDy=0;entryX=0.5;entryY=0;entryDx=0;entryDy=0;" edge="1" parent="1" source="AW0lx6tvLDKkkBaJoxgc-6" target="AW0lx6tvLDKkkBaJoxgc-7">
          <mxGeometry relative="1" as="geometry" />
        </mxCell>
        <mxCell id="AW0lx6tvLDKkkBaJoxgc-6" value="Book return" style="ellipse;whiteSpace=wrap;html=1;" vertex="1" parent="1">
          <mxGeometry x="330" y="450" width="120" height="80" as="geometry" />
        </mxCell>
        <mxCell id="AW0lx6tvLDKkkBaJoxgc-7" value="Fine calculation" style="ellipse;whiteSpace=wrap;html=1;" vertex="1" parent="1">
          <mxGeometry x="330" y="590" width="120" height="80" as="geometry" />
        </mxCell>
        <mxCell id="AW0lx6tvLDKkkBaJoxgc-8" value="Verify user" style="ellipse;whiteSpace=wrap;html=1;" vertex="1" parent="1">
          <mxGeometry x="340" y="110" width="120" height="80" as="geometry" />
        </mxCell>
        <mxCell id="AW0lx6tvLDKkkBaJoxgc-9" value="&lt;font style=&quot;font-size: 17px;&quot;&gt;Library management System&lt;/font&gt;" style="text;html=1;strokeColor=none;fillColor=none;align=center;verticalAlign=middle;whiteSpace=wrap;rounded=0;" vertex="1" parent="1">
          <mxGeometry x="265" y="50" width="250" height="60" as="geometry" />
        </mxCell>
        <mxCell id="AW0lx6tvLDKkkBaJoxgc-12" value="" style="endArrow=classic;html=1;rounded=0;exitX=0.5;exitY=0.5;exitDx=0;exitDy=0;exitPerimeter=0;entryX=0;entryY=0.5;entryDx=0;entryDy=0;" edge="1" parent="1" target="AW0lx6tvLDKkkBaJoxgc-5">
          <mxGeometry width="50" height="50" relative="1" as="geometry">
            <mxPoint x="185" y="365" as="sourcePoint" />
            <mxPoint x="315" y="375" as="targetPoint" />
            <Array as="points">
              <mxPoint x="270" y="365" />
            </Array>
          </mxGeometry>
        </mxCell>
        <mxCell id="AW0lx6tvLDKkkBaJoxgc-14" value="" style="endArrow=classic;html=1;rounded=0;entryX=1;entryY=0.5;entryDx=0;entryDy=0;" edge="1" parent="1" source="AW0lx6tvLDKkkBaJoxgc-3" target="AW0lx6tvLDKkkBaJoxgc-5">
          <mxGeometry width="50" height="50" relative="1" as="geometry">
            <mxPoint x="570" y="380" as="sourcePoint" />
            <mxPoint x="460" y="380" as="targetPoint" />
          </mxGeometry>
        </mxCell>
        <mxCell id="AW0lx6tvLDKkkBaJoxgc-15" value="" style="endArrow=classic;html=1;rounded=0;exitX=0.5;exitY=0.5;exitDx=0;exitDy=0;exitPerimeter=0;" edge="1" parent="1" source="AW0lx6tvLDKkkBaJoxgc-1" target="AW0lx6tvLDKkkBaJoxgc-6">
          <mxGeometry width="50" height="50" relative="1" as="geometry">
            <mxPoint x="195" y="375" as="sourcePoint" />
            <mxPoint x="330" y="380" as="targetPoint" />
            <Array as="points">
              <mxPoint x="280" y="375" />
            </Array>
          </mxGeometry>
        </mxCell>
        <mxCell id="AW0lx6tvLDKkkBaJoxgc-16" value="" style="endArrow=classic;html=1;rounded=0;" edge="1" parent="1" target="AW0lx6tvLDKkkBaJoxgc-6">
          <mxGeometry width="50" height="50" relative="1" as="geometry">
            <mxPoint x="620" y="389" as="sourcePoint" />
            <mxPoint x="450" y="380" as="targetPoint" />
          </mxGeometry>
        </mxCell>
        <mxCell id="AW0lx6tvLDKkkBaJoxgc-17" value="&lt;font style=&quot;font-size: 17px;&quot;&gt;&amp;lt;&amp;lt;include&amp;gt;&amp;gt;&lt;/font&gt;" style="text;html=1;strokeColor=none;fillColor=none;align=center;verticalAlign=middle;whiteSpace=wrap;rounded=0;" vertex="1" parent="1">
          <mxGeometry x="410" y="240" width="60" height="30" as="geometry" />
        </mxCell>
        <mxCell id="AW0lx6tvLDKkkBaJoxgc-18" value="&lt;font style=&quot;font-size: 17px;&quot;&gt;&amp;lt;&amp;lt;include&amp;gt;&amp;gt;&lt;/font&gt;" style="text;html=1;strokeColor=none;fillColor=none;align=center;verticalAlign=middle;whiteSpace=wrap;rounded=0;" vertex="1" parent="1">
          <mxGeometry x="410" y="550" width="60" height="30" as="geometry" />
        </mxCell>
        <mxCell id="AW0lx6tvLDKkkBaJoxgc-21" value="" style="rounded=0;whiteSpace=wrap;html=1;fillColor=none;" vertex="1" parent="1">
          <mxGeometry x="250" y="40" width="310" height="660" as="geometry" />
        </mxCell>
      </root>
    </mxGraphModel>
  </diagram>
</mxfile>
